<svg xmlns="http://www.w3.org/2000/svg" width="55" height="38" viewBox="0 0 55 38"><style type="text/css"><![CDATA[
	.st0{fill:#202020;}
]]></style><path d="M22 12h4v5h2v-5h5c1.7 0 3-1.3 3-3v-6c0-1.7-1.3-3-3-3h-11c-1.7 0-3 1.3-3 3v6c0 1.7 1.3 3 3 3zm-1-9c0-.6.4-1 1-1h11c.6 0 1 .4 1 1v6c0 .6-.4 1-1 1h-11c-.6 0-1-.4-1-1v-6zm31 23h-4v-6h-41v6h-4c-1.7 0-3 1.3-3 3v6c0 1.7 1.3 3 3 3h11c1.7 0 3-1.3 3-3v-6c0-1.7-1.3-3-3-3h-5v-4h17v4h-4c-1.7 0-3 1.3-3 3v6c0 1.7 1.3 3 3 3h11c1.7 0 3-1.3 3-3v-6c0-1.7-1.3-3-3-3h-5v-4h18v4h-5c-1.7 0-3 1.3-3 3v6c0 1.7 1.3 3 3 3h11c1.7 0 3-1.3 3-3v-6c0-1.7-1.3-3-3-3zm-38 2c.6 0 1 .4 1 1v6c0 .6-.4 1-1 1h-11c-.6 0-1-.4-1-1v-6c0-.6.4-1 1-1h11zm19 0c.6 0 1 .4 1 1v6c0 .6-.4 1-1 1h-11c-.6 0-1-.4-1-1v-6c0-.6.4-1 1-1h11zm20 7c0 .6-.4 1-1 1h-11c-.6 0-1-.4-1-1v-6c0-.6.4-1 1-1h11c.6 0 1 .4 1 1v6z"/></svg>