<svg xmlns="http://www.w3.org/2000/svg" width="57" height="57" viewBox="0 0 57 57"><style type="text/css"><![CDATA[
	.st0{fill:#202020;}
]]></style><path class="st0" d="M8 31.9c3 0 5.5-2.4 5.5-5.4 0-3-2.4-5.4-5.5-5.4-3 0-5.5 2.4-5.5 5.4 0 2.9 2.5 5.4 5.5 5.4zm0-8.9c1.9 0 3.5 1.5 3.5 3.4s-1.5 3.4-3.5 3.4c-1.9 0-3.5-1.5-3.5-3.4s1.6-3.4 3.5-3.4zm-.1 11c-4.3 0-7.9 3.6-7.9 8 0 3 1 4.1 1.2 4.2 1.4 1.3 2.6 4 2.6 5.9.1 2.7 1.9 4.9 4.2 4.9s4.1-2.2 4.1-4.9c0-1.9 1.2-4.6 2.6-5.9.2-.2 1.2-1.3 1.2-4.2 0-4.4-3.6-8-8-8zm5.5 10.8c-1.8 1.7-3.3 4.9-3.3 7.3 0 1.6-1 2.9-2.1 2.9s-2.1-1.3-2.1-2.9c0-2.4-1.4-5.7-3.3-7.3 0 0-.6-.7-.6-2.8 0-3.3 2.7-6 5.9-6 3.3 0 6 2.7 6 6 0 2.1-.5 2.8-.5 2.8zm15.6-33.9c3 0 5.5-2.4 5.5-5.4 0-3.1-2.5-5.5-5.5-5.5s-5.5 2.4-5.5 5.4c.1 3 2.5 5.5 5.5 5.5zm0-8.9c1.9 0 3.5 1.5 3.5 3.4s-1.5 3.4-3.5 3.4-3.5-1.5-3.5-3.4c.1-1.9 1.6-3.4 3.5-3.4zm-4.1 29.1c0 2.7 1.8 4.9 4.1 4.9s4.1-2.2 4.1-4.9c0-1.9 1.2-4.6 2.6-5.9.3-.1 1.3-1.2 1.3-4.2 0-4.4-3.6-8-8-8s-7.9 3.6-7.9 8c0 3 1 4.1 1.2 4.2 1.4 1.3 2.6 4 2.6 5.9zm4.1-16.1c3.3 0 6 2.7 6 6 0 2.1-.6 2.8-.6 2.8-1.8 1.7-3.3 4.9-3.3 7.3 0 1.6-1 2.9-2.1 2.9s-2.1-1.3-2.1-2.9c0-2.4-1.4-5.7-3.3-7.3 0 0-.6-.7-.6-2.8.1-3.3 2.7-6 6-6zm20.1 16.9c3 0 5.5-2.4 5.5-5.4 0-3-2.4-5.4-5.5-5.4-3 0-5.5 2.4-5.5 5.4 0 2.9 2.5 5.4 5.5 5.4zm0-8.9c1.9 0 3.5 1.5 3.5 3.4s-1.5 3.4-3.5 3.4c-1.9 0-3.5-1.5-3.5-3.4s1.6-3.4 3.5-3.4zm-.1 11c-4.4 0-7.9 3.6-7.9 8 0 3 1 4.1 1.2 4.2 1.4 1.3 2.6 4 2.6 5.9 0 2.7 1.8 4.9 4.1 4.9s4.1-2.2 4.1-4.9c0-1.9 1.2-4.6 2.6-5.9.3-.1 1.3-1.2 1.3-4.2 0-4.4-3.6-8-8-8zm5.5 10.8c-1.8 1.7-3.3 4.9-3.3 7.3 0 1.6-1 2.9-2.1 2.9s-2.1-1.3-2.1-2.9c0-2.4-1.4-5.7-3.3-7.3 0 0-.6-.7-.6-2.8 0-3.3 2.7-6 5.9-6 3.3 0 6 2.7 6 6 0 2.1-.5 2.8-.5 2.8zm-31.7-15.2l-1.5-1.3-6 7 1.5 1.3 6-7zm12.5 0l6 7 1.5-1.3-6-7-1.5 1.3zm-20.3 23.4h27v-2h-27v2z"/></svg>