<svg xmlns="http://www.w3.org/2000/svg" width="48" height="41" viewBox="0 0 48 41"><style type="text/css"><![CDATA[
	.st0{fill:#202020;}
]]></style><path d="M15 41h18v-41h-18v41zm2-39h14v37h-14v-37zm18-1v2h11v35h-11v2h13v-39h-13zm-35 39h13v-2h-11v-35h11v-2h-13v39zm12-31h-7v2h7v-2zm0 6h-7v2h7v-2zm-7 8h7v-2h-7v2zm15-12h8v-2h-8v2zm0 6h8v-2h-8v2zm0 6h8v-2h-8v2zm23-14h-7v2h7v-2zm-7 8h7v-2h-7v2zm0 6h7v-2h-7v2zm-12 4c-2.2 0-4 1.8-4 4s1.8 4 4 4 4-1.8 4-4-1.8-4-4-4zm0 6c-1.1 0-2-.9-2-2s.9-2 2-2 2 .9 2 2-.9 2-2 2z"/></svg>