<svg xmlns="http://www.w3.org/2000/svg" width="40" height="57" viewBox="0 0 40 57"><style type="text/css"><![CDATA[
	.st0{fill:#202020;}
]]></style><path class="st0" d="M20 16c4.4 0 8-3.6 8-8s-3.6-8-8-8-8 3.6-8 8 3.6 8 8 8zm0-14c3.3 0 6 2.7 6 6s-2.7 6-6 6-6-2.7-6-6 2.7-6 6-6zm-7.6 32c1.4 1.3 2.6 4 2.6 6v2c0 2.8 2.2 5 5 5s5-2.2 5-5v-2c0-1.9 1.2-4.7 2.6-6 .1-.1 2.3-2.1 2.3-6 0-5.5-4.5-10-10-10s-9.9 4.5-9.9 10c.1 3.9 2.3 5.9 2.4 6zm7.6-14c4.4 0 8 3.6 8 8 0 2.9-1.6 4.5-1.6 4.5-2 1.7-3.4 5-3.4 7.5v2c0 1.7-1.3 3-3 3s-3-1.3-3-3v-2c0-2.5-1.4-5.8-3.3-7.4 0 0-1.7-1.6-1.7-4.5.1-4.5 3.6-8.1 8-8.1zm0 31c7.4 0 13-2.6 13-6 0-1.9-1.7-3.5-4.6-4.7l-.7 1.9c2 .8 3.3 1.9 3.3 2.8 0 1.9-4.7 4-11 4s-11-2.1-11-4c0-1 1.3-2 3.3-2.8l-.7-1.9c-2.9 1.2-4.6 2.8-4.6 4.7 0 3.4 5.6 6 13 6zm15.6-12l-1.1 1.7c1.6 1.1 3.6 2.9 3.6 5.3 0 4.9-8.2 9-18 9s-18.1-4.1-18.1-9c0-2.4 1.9-4.2 3.6-5.3l-1.2-1.7c-2.9 2-4.4 4.4-4.4 7 0 6.2 8.8 11 20 11s20-4.8 20-11c0-2.6-1.5-5-4.4-7z"/></svg>