<?xml version="1.0" encoding="utf-8"?>
<!-- Generator: Adobe Illustrator 16.0.0, SVG Export Plug-In . SVG Version: 6.00 Build 0)  -->
<!DOCTYPE svg PUBLIC "-//W3C//DTD SVG 1.1//EN" "http://www.w3.org/Graphics/SVG/1.1/DTD/svg11.dtd">
<svg version="1.1" id="Layer_1" xmlns="http://www.w3.org/2000/svg" xmlns:xlink="http://www.w3.org/1999/xlink" x="0px" y="0px"
	 width="46px" height="50.8px" viewBox="0 0 46 50.8" style="enable-background:new 0 0 46 50.8;" xml:space="preserve">
<g>
	<g>
		<path d="M39.9,16.2c0.5-1.4,0.8-2.9,0.8-4.6C40.7,5.2,36.3,0,30.8,0c-4.2,0-7.9,3.1-9.3,7.8c-1.1-0.4-2.3-0.6-3.5-0.6
			c-6.4,0-11.7,6.2-11.7,13.8s5.2,13.8,11.7,13.8c4.1,0,7.7-2.5,9.8-6.3c2.6,2,4.5,4.7,5.5,7.7c0.5,1.6,0.8,3.3,0.8,5
			c0,2.6-0.9,5.4-2.1,7.7H4c-1.2-2.3-2-5.1-2-7.7c0-3.2,1-6.4,2.8-9L3.1,31C1.1,34,0,37.5,0,41.2c0,3.2,0.8,6.3,2.4,9L3,50.8h30
			l0.7-0.7c1.6-2.7,2.4-5.9,2.4-9c0-1.5-0.2-3-0.6-4.5h7.6l0.3-0.5c1-1.6,2.6-4.7,2.6-7.9C46,23.5,43.7,19,39.9,16.2z M30.8,2
			c4.3,0,7.8,4.3,7.8,9.6c0,5.3-3.5,9.6-7.8,9.6c-0.4,0-0.8,0-1.1-0.1c0-0.1,0-0.1,0-0.2c0-5.3-2.6-10-6.3-12.3
			C24.4,4.7,27.4,2,30.8,2z M18.1,32.7c-5.3,0-9.7-5.3-9.7-11.8c0-6.5,4.3-11.8,9.7-11.8s9.7,5.3,9.7,11.8
			C27.7,27.4,23.4,32.7,18.1,32.7z M42,34.7h-7.1c-1.2-3.2-3.4-6.1-6.2-8.1c0.4-1.1,0.7-2.2,0.9-3.5c0.4,0.1,0.9,0.1,1.3,0.1
			c3.4,0,6.4-2.1,8.2-5.2c3.1,2.5,5,6.3,5,10.3C44,30.7,42.8,33.2,42,34.7z"/>
	</g>
</g>
</svg>
