<?xml version="1.0" encoding="utf-8"?>
<!-- Generator: Adobe Illustrator 16.0.0, SVG Export Plug-In . SVG Version: 6.00 Build 0)  -->
<!DOCTYPE svg PUBLIC "-//W3C//DTD SVG 1.1//EN" "http://www.w3.org/Graphics/SVG/1.1/DTD/svg11.dtd">
<svg version="1.1" id="Layer_1" xmlns="http://www.w3.org/2000/svg" xmlns:xlink="http://www.w3.org/1999/xlink" x="0px" y="0px"
	 width="52px" height="52px" viewBox="0 0 52 52" style="enable-background:new 0 0 52 52;" xml:space="preserve">
<style type="text/css">
<![CDATA[
	.st0{fill-rule:evenodd;clip-rule:evenodd;}
]]>
</style>
<g>
	<g>
		<path d="M0,0v52h52V0H0z M15,50H2V12h13V50z M50,50H17V12h33V50z M50,10H2V2h48V10z M6,8c1.1,0,2-0.9,2-2c0-1.1-0.9-2-2-2
			S4,4.9,4,6C4,7.1,4.9,8,6,8z M14,8c1.1,0,2-0.9,2-2c0-1.1-0.9-2-2-2s-2,0.9-2,2C12,7.1,12.9,8,14,8z M22,8c1.1,0,2-0.9,2-2
			c0-1.1-0.9-2-2-2s-2,0.9-2,2C20,7.1,20.9,8,22,8z M31,17H21v12h10V17z M29,27h-6v-8h6V27z M46,17H36v12h10V17z M44,27h-6v-8h6V27z
			 M31,34H21v12h10V34z M29,44h-6v-8h6V44z M46,34H36v12h10V34z M44,44h-6v-8h6V44z M12,15H5v2h7V15z M12,20H5v2h7V20z M12,25H5v2h7
			V25z M12,30H5v2h7V30z M12,35H5v2h7V35z M12,40H5v2h7V40z M12,45H5v2h7V45z"/>
	</g>
</g>
</svg>
