<?xml version="1.0" encoding="utf-8"?>
<!-- Generator: Adobe Illustrator 16.0.0, SVG Export Plug-In . SVG Version: 6.00 Build 0)  -->
<!DOCTYPE svg PUBLIC "-//W3C//DTD SVG 1.1//EN" "http://www.w3.org/Graphics/SVG/1.1/DTD/svg11.dtd">
<svg version="1.1" id="Layer_1" xmlns="http://www.w3.org/2000/svg" xmlns:xlink="http://www.w3.org/1999/xlink" x="0px" y="0px"
	 width="48px" height="57px" viewBox="0 0 48 57" style="enable-background:new 0 0 48 57;" xml:space="preserve">
<style type="text/css">
<![CDATA[
	.st0{fill-rule:evenodd;clip-rule:evenodd;}
]]>
</style>
<g>
	<g>
		<path d="M47.9,23.5C47.9,23.5,47.8,23.5,47.9,23.5c-0.1-0.2-0.2-0.4-0.4-0.6L44,19.4V5H30l-5.1-4.7c-0.5-0.5-1.5-0.4-1.9,0L18,5H4
			v14.3l-3.6,3.6c-0.3,0.3-0.3,0.7-0.2,1C0.1,23.8,0,23.8,0,23.7v28.9C0,55,2,57,4.4,57h39.2c2.4,0,4.4-2,4.4-4.4V23.4
			C48,23.4,47.9,23.4,47.9,23.5z M24,2.2L27,5h-6L24,2.2z M6,7h36v21.5l-18,18L6,28.6V7z M1.9,24.2L4,22.1v4.5l-2-2v-0.4h0L1.9,24.2
			z M2,52.6V27.4l13.6,13.5L2.4,54C2.2,53.6,2,53.1,2,52.6z M43.6,55H4.4c-0.1,0-0.1,0-0.2,0L17,42.3l6,6c0.2,0.2,0.5,0.3,0.7,0.3
			c0.1,0,0.2,0,0.2,0c0.1,0,0.2,0,0.2,0c0.3,0,0.5-0.1,0.7-0.3l6.1-6L43.7,55C43.7,55,43.6,55,43.6,55z M46,52.6
			c0,0.5-0.2,1-0.4,1.4L32.4,40.9L46,27.3V52.6z M46,24.5l-2,2v-4.3l2,2V24.5z M20,13h8c0.6,0,1-0.4,1-1s-0.4-1-1-1h-8
			c-0.6,0-1,0.4-1,1S19.4,13,20,13z M13,20h22c0.6,0,1-0.4,1-1s-0.4-1-1-1H13c-0.6,0-1,0.4-1,1S12.4,20,13,20z M36,26
			c0-0.5-0.4-1-1-1H13c-0.6,0-1,0.4-1,1c0,0.6,0.4,1,1,1h22C35.6,27,36,26.6,36,26z M34,33c0-0.6-0.4-1-1-1H15c-0.6,0-1,0.5-1,1.1
			c0,0.6,0.4,0.9,1,0.9h18C33.6,34,34,33.6,34,33z"/>
	</g>
</g>
</svg>
