<?xml version="1.0" encoding="utf-8"?>
<!-- Generator: Adobe Illustrator 16.0.0, SVG Export Plug-In . SVG Version: 6.00 Build 0)  -->
<!DOCTYPE svg PUBLIC "-//W3C//DTD SVG 1.1//EN" "http://www.w3.org/Graphics/SVG/1.1/DTD/svg11.dtd">
<svg version="1.1" id="Layer_1" xmlns="http://www.w3.org/2000/svg" xmlns:xlink="http://www.w3.org/1999/xlink" x="0px" y="0px"
	 width="43px" height="53px" viewBox="0 0 43 53" style="enable-background:new 0 0 43 53;" xml:space="preserve">
<g>
	<g>
		<path d="M42.8,47.4c0-0.6,0-1.1,0-1.2C42.8,39.9,38,33,31.2,33h-2.4c4.2-2.5,7.1-7.2,7.1-12.5v-6c0,0,0,0,0,0c0,0,0,0,0,0
			c0,0,0,0,0,0c0-8-6.5-14.4-14.4-14.4C13.6,0,7.1,6.5,7.1,14.5v6c0,5.3,2.9,10,7.1,12.5h-2.4C5,33,0.2,39.9,0.2,46.2
			c0,0.1,0,0.6,0,1.2c-0.1,2-0.2,4-0.2,4.7l0,1h43l0-1C43,51.3,42.9,49.3,42.8,47.4z M21.5,2C28,2,33.3,7,33.8,13.4
			c-6.2-0.4-8.7-3.9-8.8-4.1l-0.6-0.8l-0.8,0.6c-6.7,4.9-12.5,5.3-14.5,5.3C9.2,7.6,14.7,2,21.5,2z M9.1,20.5v-4.1
			c0.1,0,0.1,0,0.2,0c2.4,0,8.1-0.6,14.7-5.1c1.2,1.3,4.3,3.9,9.8,4.2v5.1c0,6.9-5.6,12.5-12.4,12.5S9.1,27.4,9.1,20.5z M20,51H2
			c0-1,0.1-2.5,0.1-3.6c0-0.7,0.1-1.2,0.1-1.3c0-5.3,4-11.1,9.6-11.1h1.7c0.1,0.1,0.1,0.1,0.2,0.2l6.3,3.6V51z M21,37
			C21,37,20.9,37,21,37l-3.6-2h7.4l-3.6,2C21.2,37,21.1,37,21,37z M22,51V38.9l6.5-3.7c0.1-0.1,0.2-0.1,0.2-0.2h2.5
			c5.7,0,9.6,5.9,9.6,11.2c0,0.1,0,0.6,0.1,1.3c0,1,0.1,2.5,0.1,3.6H22z M16.5,18.6c-1,0-1.9,0.9-1.9,1.9c0,1.1,0.9,1.9,1.9,1.9
			s1.9-0.9,1.9-1.9C18.4,19.4,17.6,18.6,16.5,18.6z M26.4,22.4c1,0,1.9-0.9,1.9-1.9c0-1.1-0.9-1.9-1.9-1.9s-1.9,0.9-1.9,1.9
			C24.6,21.6,25.4,22.4,26.4,22.4z M23.9,27.1c-0.4-0.4-1-0.4-1.4,0c-0.4,0.4-0.8,0.6-1.2,0.6c-0.6,0-1-0.5-1-0.5
			c-0.4-0.4-1-0.5-1.4-0.1c-0.4,0.4-0.5,1-0.1,1.4c0.1,0.1,1,1.2,2.4,1.2c0,0,0.1,0,0.1,0c0.7,0,1.6-0.2,2.5-1.2
			C24.3,28.2,24.3,27.5,23.9,27.1z M36.8,44h-9.9c-0.5,0-1,0.4-1,1c0,0.6,0.4,1,1,1h9.9c0.5,0,1-0.4,1-1C37.8,44.4,37.4,44,36.8,44z
			"/>
	</g>
</g>
</svg>
