<?xml version="1.0" encoding="utf-8"?>
<!-- Generator: Adobe Illustrator 16.0.0, SVG Export Plug-In . SVG Version: 6.00 Build 0)  -->
<!DOCTYPE svg PUBLIC "-//W3C//DTD SVG 1.1//EN" "http://www.w3.org/Graphics/SVG/1.1/DTD/svg11.dtd">
<svg version="1.1" id="Layer_1" xmlns="http://www.w3.org/2000/svg" xmlns:xlink="http://www.w3.org/1999/xlink" x="0px" y="0px"
	 width="52px" height="52px" viewBox="0 0 52 52" style="enable-background:new 0 0 52 52;" xml:space="preserve">
<g>
	<g>
		<path d="M26,0C11.7,0,0,11.7,0,26c0,14.3,11.7,26,26,26c14.3,0,26-11.7,26-26C52,11.7,40.3,0,26,0z M26,2c13.2,0,24,10.8,24,24
			c0,5-1.6,9.7-4.2,13.6c0,0-0.1,0-0.1,0c-4.8-1.5-11.7-4.6-12.5-6.9c0.2-0.6,0.8-2.2,1-3.7c0.6-0.5,1.7-1.8,1.8-3.4
			c0.1-0.9-0.2-1.8-0.8-2.6c-0.1-0.9-0.2-2.2,0-2.7c0-0.1,0.9-2.6-0.5-5.3c-1.4-2.6-4.3-4.6-8.7-5.9c-0.6-0.4-2.4-1.6-4.3-1.6
			c-1.6,0-3.6,0.8-4.5,4.6l0,0.1c-0.2,2.6-0.6,5.8-0.9,6.4l-0.1,0.1l-0.1,0.2c0,0.2-1.1,4,2.1,10c0.6,1.5,0.9,3.3,0.8,3.8l-0.2,0.2
			c-0.9,1-3.7,3.7-5.6,3.8l-0.2,0c-0.1,0-3.5,0.8-6.3,3.5C3.8,36.3,2,31.3,2,26C2,12.8,12.8,2,26,2z M26,50c-7.2,0-13.6-3.2-18-8.2
			c2.1-2.2,4.9-3,5.4-3.1c2.9-0.2,6.1-3.5,6.8-4.3c1.6-1,0.7-4.3-0.1-6.2L20.1,28c-2.6-4.7-2.1-7.9-2-8.5c0.7-1.4,1.1-5.3,1.2-7.1
			c0.7-3,2-3,2.5-3c1.2,0,2.7,1,3.2,1.3l0.2,0.1l0.2,0.1c3.9,1.1,6.5,2.7,7.6,4.9c1,2,0.5,3.7,0.4,3.7c-0.6,1.3-0.1,3.6-0.1,4.1
			l0,0.3l0.2,0.2c0.4,0.4,0.5,0.9,0.5,1.4c-0.1,1-1.1,2-1.4,2.3L32.2,28l0,0.4c-0.1,1.6-1,3.7-1,3.7l-0.1,0.3l0,0.3
			c0.7,4.1,10.3,7.6,13.4,8.5C40.1,46.6,33.4,50,26,50z"/>
	</g>
</g>
</svg>
